<svg xmlns="http://www.w3.org/2000/svg" width="595px" height="842px" viewBox="0 0 595 842">
	<path d="m526 842c-15-102-93.6-157.2-133.5-182.6-43.2-27.5-87.6-53.3-132.3-78.1-32.6-18-64.5-37.2-96.4-56.4-12.8-7.7-25.6-15.2-38.7-22.5-11.1-6.2-22-12.7-32.1-20.5-4.5-4.1-8.7-8.6-12.4-13.7-1.3-2.5-2.5-5-3.5-7.7-0.3-1.7-0.6-3.5-0.8-5.3 0.1-4.2 0.6-8.5 1.2-12.7 1.9-7.6 4.4-15.1 7.5-22.4 4.3-8.6 9.2-16.8 14.7-24.6 4.7-5.8 9.8-11.2 15.2-16.1 3.3-2.5 6.7-4.8 10.2-6.8 2.1-0.9 4.2-1.6 6.3-2.3 1.6-0.2 3.2-0.3 4.8-0.4 5 0.8 9.7 2.3 14.4 4 18.3 7.9 35.1 18.6 52.1 28.8 22.5 13.5 45.4 26.4 67.6 40.4 22.4 14.1 44.5 28.4 67.5 41.6 11.3 6.5 22.7 13 34 19.6 5.3 3.1 10.5 6.2 15.8 9.3 6.4 3.8 13.3 6.4 20.2 9.1 21.1 8.3 48.3 7.3 71.4-3.8 22.8-11 44.2-27.6 61-48.7 15.7-19.7 29.2-42.1 35.1-66.5 6.4-26.4 5.9-52.2-4.1-74.8-10.4-23.5-30.8-39.2-50.4-52.9-15.2-10.6-31.4-19.5-47.3-29-14.3-8.6-28.9-16.8-43.3-25.2-16.9-9.9-37.2-18.8-53.8-29.1-38.3-23.7-74-47.1-112.6-70.3-75.1-44.8-90.3-72.3-110.4-122.1-50.6 0-41.5-1.8-73.7 0 30.7 118.7 112.9 167.2 154.1 194 45.9 29.8 84.9 49.3 126.4 75.4 22.3 14 45.3 26.8 68 40.1 22.4 13.2 45.6 25.7 66 42.1 4.9 4.3 9.5 8.9 13.4 14.2 1.3 2.4 2.4 5 3.4 7.6 0.6 2.6 1 5.3 1.2 8.1-0.1 3.3-0.4 6.6-0.9 9.9-1.2 4.8-2.8 9.5-4.7 14.2-3.1 6.2-6.7 12.1-10.7 17.7-5.3 6.5-11.1 12.5-17.3 17.9-4.8 3.7-9.7 7.1-14.8 10-2.7 1.2-5.5 2.1-8.3 2.9-3 0.4-11.2 1.1-21.4-2.4-9.4-3.2-16.4-8.7-25.8-14.7-11.3-6.6-22.7-13-34.1-19.6-22.9-13.2-45-27.6-67.4-41.7-22.1-13.9-44.8-26.7-67.2-40.1-20.4-12.2-40.6-23.9-62.8-32.7-18.5-7.3-38.6-8.6-59.5-1.3-19 6.7-37 20-51.9 35.4-29.4 30.7-50.3 72.9-55.7 114-1.3 10.1-1.1 20.4 0.2 30 2 15.2 8.6 27.3 16.1 39.1 6.6 10.5 16 18.1 25.2 25.7 7.6 6.3 15.9 11.5 24.3 16.5 18.4 10.9 37.1 21.3 55.5 32.3 22.5 13.5 45 27 67.8 40 23.3 13.1 118.7 65.6 189.2 115.1 66.3 46.5 52.6 90.5 55 92" fill="#fff"/>
	<path style="fill:none; stroke:#6BA442; stroke-width:4; stroke-linejoin:round; stroke-dasharray:20" d="m137 57.7c5 8 16 20.3 21 28.3 6 8 13 14 19 21 4 3 7 6 11 9 1 1 2 3 3 4 18 15 35 30 56 41l3 3c19 9 36 19 55 29 21 13 41 25 62 39 27 17 52 33 79 48 21 11 39 21 59 34 9 7 18 12 26 21 8 11 16 22 18 36 1 17 0 33-7 48-12 26-30 47-54 65-15 10-31 15-48 13-11-1-21-6-31-11-19-10-37-21-56-32-53-32-100-64-153-94-9-5-16-10-25-14-13-5-25-9-39-7-28 5-48 25-63 49l-3 3c-11 20-20 39-24 62-5 29 11 53 33 70 4 3 7.7 6.1 13 9 6.3 3.5 12 6 18 10 23 11 43 25 65 38 11 6 20 11 31 17 5 3 9 7 14 9 32 19 62 35 94 54 46.3 27 69.2 37.5 125.1 80.9 37.1 28.8 43.6 98.7 47.9 101.1"/>
</svg>
