<svg xmlns="http://www.w3.org/2000/svg" width="800" height="600" viewBox="0 0 800 600"><path d="m-1 80h800v514.3c-2-0.3-3.2-1.5-5.5-1-2.1 0.5-4.4 3.3-8 2-1.4-0.5-0.9-1.5-3-2-4.9 6.4-17.8 5.4-26.5 3.5-5.3-1.2-7.8 2.7-12 1.5-2.1-0.6-2.8-3.3-5-2.5-2.8 0.7-3 2.4-7 2.5-0.4-0.5-4.1-3.9-4.5-4-2.6-0.9-6.6 1-8.5-0.5-0.8-0.6-2-3.2-2.5-4-3.3 2-12.9 4.7-19 3-2.3-0.6-3.5-4-7-3l-1.5 1.5h-11c-2.4 0.7-6.9 2.4-9 3-2.5-0.3-5-0.7-7.5-1-4 1.3-3.8 4.9-11 5-2.2-3-4.1-1.4-8.5-2.5-0.2-0.1-1-1.1-1.5-1-1.3 0.2-2 2.1-4.5 1.5-2.5-0.6-4-3.4-6-4-2.5-0.7-6 1.2-8.5-0.5-1.3-0.8-2.5-3.3-4-4-1.7-0.2-3.3-0.3-5-0.5-0.7-0.7-1.3-1.3-2-2-2.1-0.6-2.4 1.1-3.5 1.5h-7.5c-1.2 0.4-2.3 1.9-4.5 1.5-2.5-0.5-3.4-2.8-5-3.5-2.5 0.2-5 0.3-7.5 0.5-0.7-0.2-2.5-1.4-3-1.5-2.5-0.6-6.5 1.5-8 2h-7c-3.4 1-8.1 1.1-11.5 2-3 0.2-6 0.3-9 0.5-2.1 0.8-5.3 2.9-7.5 3.5-4.6 1.2-14.1-4.5-17.5-4-8.6 1.3-15.2 5.7-23 7-4.6 0.8-8.7-2.7-14-1-2.8 0.9-3.7 2.4-8 2.5-0.1-0.1-14.3-8.9-14.5-9-2.6-0.8-9.6 1.1-13.5 0.5-1.7-0.3-1.2-2-3.5-1.5l-1.5 1.5h-12c-0.5 0.7-1 1.3-1.5 2-2.6 1.6-6.9 0.8-9.5 0h-8c-2.8-0.9-13.7-4.7-16-1-1.2 1.5-0.9 3.4-1.5 4.5-0.6 0.4-0.8 0.4-2 0.5-2.2-2.1-7.9 1.8-10 1-1.5-0.6-1.5-1.9-4.5-2v1c0.4 0.5 0.3 0.5 0.5 1.5-1 0.4-2.3 0.5-4 0.5-0.6-0.7-1-1.1-1.5-2-3.7 2.9-16.4 7.4-24 5-1.6-0.5-1.7-2.7-4.5-2l-1 1c-4.2-0.2-8.3-0.3-12.5-0.5-1.5 0.6-5.6 3.5-9 2.5l-1.5-1.5c-2.5-0.2-5-0.3-7.5-0.5l-1.5-1.5c-2.7-1-5.2 0-7.5-1-1.6-0.7-2.6-2.5-4.5-3-4.2-0.2-8.3-0.3-12.5-0.5-1-0.3-1.9-1.7-2.5-2h-8.5c-1.5 2-6.6 5.2-9 6-5-0.2-10-0.3-15-0.5-0.3 0.5-0.7 1-1 1.5-5.9 2.7-14.5-3.3-18-5-2.5-1.2-3.7 1.5-6 1-3.3-0.8-7.4-3.7-11.5-4-3.6 5.1-8.6 0.2-13.5-0.5-4.9-0.7-8.3 4.8-14 2.5-2.6-1-6.4-4.4-11.5-3-3.2 0.9-6.3 4.1-9.5 5-2.9 0.8-5.9-1-8-1.5-5.6-1.3-8.4 2.6-13 1.5-2-0.5-3.3-2.3-5-3-2.6-1-4.6-0.7-7-2l-2-2h-12c-0.8-0.3-1.7-1.7-2.5-2-2.3-0.8-15.8-0.7-17.5 0-1.3 0.5-3.7 2.5-5.5 3-2.6 0.7-3.5-0.8-6-1-1 1.6-2.3 2.7-3.5 4-5.5 0.1-10.7-0.6-15-1-1.1 1.7-1.7 2.4-4.5 2.5-1-1.1-1.5-1.3-3.5-1.5-1 1.4-1.5 1.5-4 1.5-2-2-3.6-0.5-7-1.5-1.9-0.5-7.2-5-10-4-0.7 0.2-2 1.9-3 2-2.5 0.4-3.8-3.6-7-2-3.9 1.9-6.7 5.7-12 6-6.7-6-12.8 1-18 2v-513.8z" fill="#9B1D20"/></svg>
