<svg xmlns="http://www.w3.org/2000/svg" width="64px" height="64px" viewBox="0 0 64 64" fill="rgba(0, 0, 0, 0.06)">
	<path d="M31.9.3c-.3.3-.4.7-.2 1.3.3 1.4-.7 3.6-1.6 5.5l-1 2.4c-.3.9-.7 1.4-1.1 1.5-.4 0-.9-.4-1.4-1.3-.8-1.3-6.1-7.4-7.8-6.9-.2 0-.6.2-.6.9 0 1.1.2 3 .5 5.1.4 2.4.8 5.1.5 6.1a3 3 0 0 1-1.2 1.7c-.7.4-1.5.5-2.3.2l-.5-.2c-1.9-.6-4.5-1.4-5.9-.9-.4.2-.7.5-.8 1-.3 1.4 1.2 3.8 2.3 5l.8.8c1.2 1.2 2.2 2.2 2 3.2-.2 1.1-1 1.6-3.1 2.4l-2.4.4-3 .7c-1 .3-1.2.8-1.2 1.2 0 1.6 4 3.3 6 3.9l1.4.3c.9.2 1.6.3 1.7.7.1.5-1.1 2.9-2.5 4.5l-1.8 1.9a12 12 0 0 0-2.2 2.5c-.1.3-.1.6.1.8.7.9 4.7.8 6 .5l1.8-.6c1.3-.5 2.9-1 3.3-.6.6.6-.3 2.7-.9 4.4l-.3.7c-.9 2.2-1.5 3.5-2.6 4.7-.4.4-.2.8-.1.8.6.8 4.1-.5 4.9-1l1.5-.9c1.5-.9 3.4-2 4-2.2.6-.3 1.1-.3 1.4-.2.3.2.4.6.4.8.2 1.7-.3 8.7-1 10.1-.2.4 0 .7.2.8.9.5 4.6-2.4 5.6-3.7 1-1.3 1.8-3.7 2.5-5.6l.1-.3c.2-.6.5-1 .9-1 .5 0 1.3.8 2.2 3.1 1 2.6 1.2 5.2 1.5 7.6l.1 1.5h.4c.9 0 3.8-5.1 4-7.9v-4.2c0-.5.1-.9.4-1.1.3-.2.9-.2 1.6 0 1.2.4 5 4.2 6.5 6.9.3.5.6.4.7.4 1.1-.4.7-5.9.7-6-.3-2-.6-3-.8-3.8l-.2-.8c-.3-1.5-.3-2.3.6-2.9.6-.4 1.2-.5 2.4.3a7 7 0 0 1 2.4 2.8c.4.8.8.7 1 .6.9-.5.1-4.5-1.2-6.8-.8-1.5-2.1-2.7-2.8-3.4l-.4-.4c-.2-.3-.3-.5-.2-.8.1-.4.5-.7 1-1 4.8-2.2 5.8-3.1 5.9-3.7.2-1.4-4.5-2.9-5.5-3.2-.5-.1-.8-.4-.9-.7-.2-.5-.2-1.1.1-1.9.2-.7 1.2-1.9 2-2.8.6-.8 1.2-1.4 1.3-1.9.4-.9.2-1.4-.1-1.7-.7-.9-2.3-1-3.2-.9l-2 .5c-1 .4-1.5.5-1.7.1-.4-.6.4-2.8.8-4.1l.6-1.9.1-.6c.4-1.5.8-3.2.1-4-.2-.2-.5-.4-1-.4-1.2.1-2.2 1.5-3.3 3l-1.5 2c-.6.6-1.2.8-1.6.7-.3-.1-.5-.4-.6-.8-.1-.7.2-2.8.9-6.2.2-1 .6-1.6 1-2.1s.7-1 .5-1.6a.8.8 0 0 0-.4-.4c-.8-.2-2.9 1-3.5 1.5-.9.7-3 3-4 5.2-.3.8-.7 1-.8 1-.2 0-.5-.4-.8-1.2-.4-1.2-.4-2.1-.5-3.2l-.3-2.8c-.3-1.6-1.9-3-2.9-3.4-.5-.3-.9-.2-1 0zM28 11.9c.7-.1 1.3-.7 1.8-2l1-2.3a13 13 0 0 0 1.7-5.3l-.1-.9c0-.4.3-.3.6-.1.8.5 1.7 1.5 1.8 2.5l.3 2.8c.1 1.1.1 2.1.6 3.4.4 1.2.9 1.8 1.6 1.9.6 0 1.2-.5 1.7-1.5 1-2.1 3-4.4 3.8-5 .7-.5 2.3-1.5 2.1-.9-.1.6-.9 1.5-1.1 2.6-.7 3.2-1 5.1-1 6.1v.4c.1.8.6 1.3 1.2 1.5.4.1 1.3.2 2.5-.9.6-.6 1.1-1.3 1.6-2.1.9-1.2 2.1-3 2.8-2.6.5.3 0 2.3-.2 3.3l-.1.6-.6 2c-.8 2.3-1.2 4-.7 4.9.6.9 1.7.6 2.7.2 1.7-.7 3.1-.6 4.2 0 0 0 .3.8-1.3 2.5-.9 1-1.8 2.2-2.1 3.1a3.6 3.6 0 0 0-.1 2.6c.3.5.8.9 1.5 1.2 2.2.7 4.7 1.8 4.9 2.3-.1.2-.8.9-5.3 3-.9.4-1.5 1-1.6 1.6v.4c0 .3.1.7.5 1.2l.5.5c.7.6 1.9 1.7 2.7 3.1.9 1.8 1.3 3.8 1.4 4.9-.6-1-1.2-1.9-2.4-2.7-1.2-.8-2.2-1.1-3.4-.3-.9.6-1.2 1.4-1.2 2.2l.2 1.6.2.9c.2.7.5 1.7.7 3.6l.1 1.6-.2 3a21.5 21.5 0 0 0-6.7-6.8c-.6-.3-1.6-.5-2.4 0-.5.4-.7 1-.7 1.8V56c-.1 2.3-1.9 5.3-2.8 6.5v-.2a29 29 0 0 0-1.5-7.8c-.9-2.4-1.9-3.7-3-3.7-.9 0-1.4.9-1.7 1.7-.7 1.8-1.2 4-2.4 5.6-1 1.3-3.1 2.7-4.1 3.2.6-2 .9-6.8.9-9.1v-.9c-.1-.7-.4-1.2-.8-1.5-.6-.3-1.3-.3-2.2.1l-4.1 2.3-1.5.9c-.9.5-2.5 1-3.3 1.1 1-1.1 1.7-2.5 2.4-4.5l.3-.7c.6-1.5 1.2-2.9 1.2-4a2 2 0 0 0-.4-1.3c-.8-.9-2.5-.3-4.2.3l-1.7.6c-1.4.4-4.4.2-5-.1l1.9-2.1 1.8-1.9c1-1.2 2.7-3.8 2.7-5v-.2c-.3-1.4-2.9-1.4-3.9-1.7-1.7-.5-3.5-1.3-4.8-2.5-.2-.1-.3-.4-.2-.6l.2-.1c1-.4 2.2-.6 3.2-.8l2.4-.5c2.2-.9 3.4-1.4 3.7-3.1v-.3c0-1.4-1.1-2.3-2-3.2-1-1.1-2-2.2-2.7-3.5-.2-.5-.5-1-.5-1.5l.1-.6c.2-.3.7-.4 1.1-.3 1.7.1 3.3.7 4.9 1.2a4 4 0 0 0 3-.3c.8-.5 1.4-1.3 1.7-2.2l.1-1.1c0-1.3-.3-3.3-.6-5.3-.5-2-.7-3.9-.7-5v-.2-.1c1 0 5.6 4.7 6.8 6.5.7 1.3 1.5 1.8 2.2 1.8z"/>
	<path d="M52.1 31.5l-1.9-.3c0-1.6-.2-3.2-.6-4.7.3-.4 1-1.2 2-1.8 2.4-1.6 1.7-2.2 1.3-1.7-.6.6-1.4.8-4 1.2-.6-1.5-1.4-2.9-2.4-4.1a15 15 0 0 1 2.2-5c.7-1.1.4-.8-2.3 1.8-.8.8-1.4 1-1.8 1.1-1.2-1.1-2.5-2-3.9-2.8 0-2.9.8-4.2 1.1-5 .4-1.2-.1-1.2-2.1 1.9-1 1.6-1.6 2-1.7 2-1.2-.4-2.4-.6-3.7-.7-1.1-2.4-1.3-3.3-1.2-4.1.1-.7-.7-.9-.8 2 0 1.4-.3 1.9-.5 2.1-2.2.2-5.9 1.5-5.9 1.5s-1.3-.9-2.4-2.4c-2.5-3.5-2.7-2.8-2-1.3.6 1.3.9 1.6 1.2 5.7a17.1 17.1 0 0 0-4.2 4.7c-2.7-.6-3.9-1.4-4.7-1.8-1.2-.6-1.3-.1 1.7 2 1.1.8 1.7 1.5 1.9 1.9-.7 1.5-1.1 3-1.4 4.7a11.6 11.6 0 0 1-6.1 2.4c-3-.2-1.8 1.7 4 .5 1-.2 1.6-.1 1.9.1 0 2.1.4 4 1 5.9a4.4 4.4 0 0 1-3.5 3.8c-3.1.7-2.1 1.3-.3 1 1.2-.1 2.8-.7 5.1-2 1 1.8 2.3 3.4 3.8 4.8-1.5 3.6-2 4.7-2.7 5.4-.6.6-.3 1.5 1.9-1.3 1.4-1.8 2.6-2.6 2.6-2.6s2.6 1.6 4.9 2.3c.1 3.5-.1 4.6-.5 5.4-.4.7.3 1.3 1.5-1.8.7-1.9 1.8-3 1.8-3h1.7c1.4 0 2.7-.2 4-.5 1.5 2.1 1.8 3.5 2.1 4.2.4 1.2.8.9.4-2.6-.2-1.8 0-2.3.1-2.5 1.3-.6 2.6-1.3 3.7-2.2 2.7.8 3.7 2.6 4.4 3.2 1 .9.7-.6-.7-3.1l-1.4-2.2c1-1.1 1.9-2.3 2.6-3.6 2.8.8 3.7 1.1 4.3 1.7.5.5 1.2.1-1.2-1.6-1.3-.9-2-1.8-2.2-2 .6-1.4.9-2.9 1.1-4.4 2.4-1.1 3.8-1.2 4.6-1.3.9-.2.7-.7-2.8-.9zm-35.4-.2c0-8.4 6.3-15.7 13.6-16.7 0 0 3.5 5.5 3.5 7.7.1 2.8-.3 6.8-1.8 9.1-1 1.5-1.9 3.9.5 4.2 1 .1 2.4-.1 3.3-.3-.7.6-1.5 1.6-2.5 1.9-2.2.2-4.3 1.4-5.2 2-.8.6.2 1 .5.8.9-.6 3.3-1.4 5.3-1.5 1.6 0 3.8.3 4.9.8-.4.7-2.4 1.8-3.4 2-1.4.3-3.7.2-5.4-.6-.8-.4-1.7.2-.3.7 1.2.4 2.2.7 3.9.8-.3.2-1.2 1.1-1.8 2.2L30.3 48a16.7 16.7 0 0 1-13.6-16.7zm14.9 16.9c.4-1 1.6-3.8 2.4-4.5 1.6-1.4 5.6-3.4 6.2-3.8.3-.2.5-.5 0-.9-.3-.2-3.1-1.5-5.1-1.8 1.8-1.3 2.8-2.3 2.4-2.7-.6-.8-3.2.5-4.8.2-1.2-.2-.9-1.2.1-2.7 1.6-2.5 2.1-6.8 1.9-9.8a19 19 0 0 0-3.5-7.8A16.3 16.3 0 0 1 49 31.3c.2 9.3-7.7 17.6-17.4 16.9z"/>
	<path d="M46.6 25.8c.1.1-.2.4-.3.2-1.4-1.7-6.2-3.2-8.9-1.8-.4.2-.7-.6-.2-.8a9 9 0 0 1 9.4 2.4zM21.9 25.9c-.1.1.1.5.2.3 1.4-1.7 6.2-3.3 9-1.9.4.2.7-.6.2-.8a9 9 0 0 0-9.4 2.4z"/>
	<path d="M37.5 25.4c1.1-1.5 5.3-1.3 7 .5.7.7 1.1 1.2.7 1.7-.2.2-1-1.2-2.3-1.7.6.5.5 2.3-1.5 2.3s-2.6-2.2-1.1-2.8a4 4 0 0 0-2.4.9c-.5.3-.9-.3-.4-.9zm3.9 1.3c.2 0 .4-.2.4-.4s-.2-.4-.4-.4-.4.2-.4.4c0 .3.2.4.4.4zM30.7 26.4c-.2-.2-1-.9-2.4-.9 1.5.6.9 2.8-1.1 2.8s-2-1.8-1.5-2.3c-1.3.6-2.2 1.9-2.3 1.7-.4-.5 0-1.1.7-1.7 1.7-1.8 5.9-2 7-.5.3.6-.1 1.2-.4.9zm-3.2 0c0-.2-.2-.4-.4-.4s-.4.2-.4.4.2.4.4.4.4-.2.4-.4z"/>
</svg>
