<svg  xmlns="http://www.w3.org/2000/svg" width="512px" height="512px" viewBox="0 0 512 512" fill="#F58220">
    <path d="M252.6 7.1c-2.5 2-3.1 5.4-1.8 9.9 3.2 11.4-5.9 28.3-13.9 43.3l-9.3 18.5c-3 7-6.4 11.2-9.6 11.5-3.3.3-7.9-3.3-12.6-10-7.1-10-53.7-57.5-69-53.9-1.6.4-5.2 1.8-5.5 7.1-.4 8.7 2.1 23.6 4.8 39.4 3.1 18.6 6.6 39.7 4.5 47.3-1.6 5.7-5.4 10.2-11 12.9-6 3-13.5 3.5-20.7 1.5l-4.4-1.2c-16.7-4.7-39.6-11.2-52.2-6.7-3.7 1.3-6.1 3.9-7 7.5-2.8 11.1 10.4 29.6 20.6 39.2l6.9 6.3c10.6 9.6 19 17.1 17.9 24.7-1.3 8.9-8.6 12.2-27.5 18.8-3.6 1.2-11.6 2.5-20 3.9l-26.5 5.2c-8.9 2.5-10.7 6.6-10.6 9.6.2 12.1 34.9 25.8 52.6 30.2l12.3 2.5c7.7 1.4 14.3 2.6 14.9 5.2 1.1 4.3-9.8 22.8-21.9 35.2l-15.7 14.6c-10.8 9.7-17.4 15.8-19.4 19.2-1.2 2-.9 4.3.7 6.1 6.6 7.1 41.6 6.5 53 3.8l16-4.7c11.3-3.5 25.2-8 28.9-4.4 5.1 4.9-2.3 21.1-8.2 34.1l-2.5 5.6c-7.6 17.2-13.3 27.5-23.2 36.3-3.7 3.2-1.9 5.9-1.3 6.6 5.2 6 36.1-4.2 43.4-7.8l13.5-6.8 35.3-17.3c5.6-2.2 9.9-2.7 12.5-1.3 2.5 1.3 3.4 4.3 3.6 6.6 1.5 13-3 67.6-9.1 79-1.6 3-.2 5.2 1.5 6.1 7.6 4 40.7-18.5 49.7-29 8.5-9.9 15.9-28.5 21.8-43.4l1-2.4c1.9-4.9 4.8-7.8 7.6-7.9 4.3 0 11.6 6.3 19.2 24.1 8.5 20 10.9 40.8 12.9 59.2l1.3 11.4 3.9.2c8-.2 33.7-39.7 35.2-61.4l.4-23v-9.7c0-4.2 1.1-7.1 3.4-8.5 2.8-1.8 8-1.7 14.3.1 10.9 3.2 43.8 32.5 57.7 53.5 2.5 3.7 5.6 3.1 6.5 2.8 9.7-2.9 6.1-46 6.1-46.5-2.4-15.6-5-23.5-6.8-29.2l-1.8-6.1c-2.5-11.7-2.8-17.8 5.4-22.7 5.7-3.4 10.4-3.9 21.6 2.4 10.6 6 15.6 13.6 21 21.6 4 5.9 7.4 5.3 9.1 4.4 7.8-3.9.5-35.2-10.2-52.7-7.3-11.9-18.8-21.2-25.1-26.1l-3.6-3c-2-2.2-2.7-4.3-2.2-6.2.7-2.8 4.1-5.5 9.1-7.6 42.5-17.3 51.5-24.1 52.1-29.1 1.4-11-40.1-22.7-48.4-24.9-4-1.1-6.7-2.9-8.2-5.5-2-3.6-1.8-8.7.8-15 2.2-5.4 10.5-14.5 17.2-21.9 5.7-6.2 10.2-11.2 11.9-14.4 3.4-6.7 1.6-11.1-.5-13.6-5.9-7.1-20.7-7.5-28.6-6.7-6.4.7-12.4 2.5-17.7 4.1-9.1 2.8-13.3 3.7-15.2 1.1-3.1-4.3 3.3-21.8 7.1-32.3l5.1-15 1.2-4.5c3.1-11.8 6.7-25.1.9-31.1-1.4-1.5-4.1-3.2-8.7-3-10.4.6-19.3 11.5-28.7 23.1-4.5 5.6-9.2 11.3-13.7 15.3-5.2 4.6-10.3 6.6-14 5.5-2.7-.8-4.6-3.2-5.2-6.5-.9-5.1 1.9-21.5 8.3-48.7 1.7-7.4 5.6-12.2 8.6-16.1 3.3-4.1 6.4-8 4.5-12.8-.5-1.4-1.8-2.5-3.5-2.9-7.1-1.9-25.9 8.1-30.8 11.6-8.1 5.6-26.8 23.7-35.2 40.2-3.1 5.9-5.8 7.9-7.2 7.9-1.5-.1-4.6-2.7-7.1-9.7-3.4-9.5-3.9-16.7-4.6-25.1l-2.8-22.2C285.2 20.4 271.2 9 262.3 6.4c-5.2-1.8-8.1-.6-9.7.7zm-33.7 90.1c6.6-.6 11.8-5.8 16-15.9l9-18c7.5-14.1 15.3-28.6 15.3-41 0-2.4-.3-4.7-.9-6.9-.4-1.2-.4-2-.4-2.5 0-.4 0-.4.1-.5.8 0 2.6.4 5.5 2 6.8 3.8 14.8 11.8 16.3 19.4l2.7 21.4c.6 8.4 1.3 16.4 4.9 26.7 3.2 9 8.2 14.2 14.1 14.5 5.6.3 10.6-3.7 14.8-11.9 7.8-15.2 25.6-32.6 32.9-37.6 6.1-4.2 16.9-8.9 21.8-9.9-.5 1.2-1.4 2.6-3.1 4.8-3.3 4.2-7.8 9.9-9.9 18.6-5.9 25-8.6 40.1-8.6 47.8 0 1.3.1 2.4.2 3.3 1 5.9 5 10.4 10.5 12 3.9 1.1 11.9 1.7 21.9-7.2 4.9-4.3 9.8-10.3 14.5-16.1 7.6-9.3 16.1-19.9 22.9-20.3 1.6-.1 2.1.4 2.3.6 3.2 3.4-.4 17-2.6 25.1l-1.2 4.6-4.8 14.4c-6.7 18.2-11 31.5-6.3 38.1 5.3 7.4 15 4.5 24.3 1.7 4.9-1.5 10.5-3.2 16-3.8 8.2-.9 18.4.4 21.4 4 .3.3.9 1.1.9 2.6 0 1-.3 2.4-1.2 4.2-1.3 2.5-6.1 7.8-10.8 13-7.5 8.1-15.9 17.4-18.5 23.9-1.7 4.3-2.6 8.2-2.6 11.7 0 3.2.7 6.1 2.2 8.7 2.4 4.3 6.9 7.4 12.9 9 19.7 5.3 41.1 14.2 42.8 17.8-.9 1.4-7.2 7.1-46.7 23.2-8.1 3.3-12.8 7.6-14.1 12.5-.2.8-.4 1.8-.4 2.8 0 2.6.9 5.8 4.1 9.3l4.4 3.8c5.9 4.7 16.8 13.5 23.4 24.3 8.4 13.7 11.9 29.7 12.5 38.3-5.2-7.6-10.9-14.8-21.2-20.7-10.8-6.1-19.7-8.7-30.2-2.3-7.9 4.8-10.3 10.6-10.3 17.4 0 3.8.7 7.8 1.6 12.2l1.9 6.7c1.8 5.5 4.3 13.1 6.6 28.3.4 2.8.6 7.3.6 12.3 0 8.3-.6 17.9-1.6 23.3-15.5-21.4-46.1-49-59.3-52.9-6.2-1.8-15-3.2-21.3.8-4.4 2.8-6.6 7.5-6.6 14.1v9.8l-.4 22.5c-1.2 17.6-16.7 41.1-24.8 50.8-.1-.7-.1-1.3-.1-1.3-2.1-18.8-4.5-40.1-13.4-60.9-8.1-19-17-28.6-26.6-28.5-6.3.1-11.7 4.6-14.8 12.5l-1 2.5c-5.4 13.7-12.8 32.4-20.6 41.5-8.5 9.8-27.2 21.3-36.3 25.3 5.2-15.9 8.3-53 8.3-70.7 0-3.1-.1-5.6-.3-7.3-.6-5.6-3.2-9.7-7.4-11.8-4.9-2.5-11.5-2.2-19.6 1-5.6 2.2-21.7 10.4-36 17.6l-13.4 6.8c-8.2 4.1-21.7 7.4-29.3 8.5 8.7-8.9 14.6-19.5 21.5-35l2.5-5.6c5.3-11.7 10.4-23 10.4-31.5 0-3.9-1.1-7.2-3.7-9.8-7.2-7-21.8-2.4-37.3 2.5l-15.4 4.5c-12.3 2.9-38.6 1.7-44-1.2 2.5-3.2 10.4-10.4 17.2-16.5l16-14.9c8.9-9 23.9-29.5 23.9-39.3 0-.7-.1-1.3-.2-1.8-1.7-6.9-10.6-8.6-20.9-10.4l-11.8-2.4c-23.6-5.8-46.8-18.4-46.9-23.7 0-.9 2-2.1 5.2-2.9l25.6-5c9.2-1.5 17.2-2.8 21.5-4.3 19.4-6.7 30.4-11.1 32.4-24.2.1-.8.2-1.6.2-2.3 0-9.8-9.4-18.3-20.2-28.1l-6.8-6.2c-10.7-10-18.9-23.7-18.9-31.1 0-.7.1-1.3.2-1.8.3-1.3 1-2.1 2.3-2.6 10.1-3.6 32.3 2.7 47 6.9l4.4 1.2c9.2 2.6 19 1.8 26.8-2.1 7.4-3.6 12.6-9.8 14.7-17.2.6-2.2.9-5 .9-8.4 0-10.4-2.6-25.6-5.2-41.6-2.3-13.9-4.7-28.2-4.7-36.5v-1.6s.1-.5.1-.8c9.1-.1 49.7 36.5 60 50.9 6.9 9 13.6 13.4 20.2 12.8z" />
    <path d="M432.9 249.6c-8.7-.4-14-1.4-17.2-2.2 0-12.6-2-24.8-5.5-36.5 2.9-3.3 8.7-9.2 17.6-14.3 21.2-12.3 15.3-16.9 11-13.2-5.1 4.4-12.3 6.5-35.3 9.6-5.4-11.6-12.5-22.4-20.9-32.1 6.6-21.1 15.1-33.4 19.5-39 6.6-8.5 3.3-5.9-20.5 13.6-7.4 6.1-12.8 8-16.3 8.5-10.3-8.6-22-15.9-34.6-21.6.2-22.2 6.7-32.8 9.3-39.2 3.9-9.7-1.1-9.5-18.3 14.8-9.1 12.8-14.2 15.2-15.4 15.6-10.4-2.8-21.3-4.6-32.5-5.3-9.9-19-11.9-25.5-10.3-31.8 1.3-5.3-6.6-6.9-7 15.7-.2 10.6-2.8 14.7-4.1 16.1-19.1 1.3-37.2 5.8-53.7 13.1 1.1-.7 1.8-1.1 1.8-1.1s-11.3-6.7-21-19c-21-26.7-23.2-21.4-17-9.5 5.4 10.4 8.2 12.4 10.3 44.1-14.7 10.1-27.3 22.6-37.2 36.8-23.9-4.5-34.7-10.7-41.6-13.7-10.9-4.7-11.6-1.1 14.6 16 9.6 6.3 14.6 11.5 17.1 14.6-5.7 11.5-9.8 23.8-12 36.6-22.2 14.8-46 18.9-53.8 18.4-26.4-1.4-15.6 12.9 35.3 3.9 9.2-1.6 14-.7 16.6.7.2 16.1 3.4 31.4 9 45.8-3.2 22.5-24.1 27.8-31.2 29.3-27.1 5.7-18.8 9.8-3.1 8.2 10.8-1.1 24.6-5.4 45.2-15.6 8.8 14.1 20.1 26.7 33.4 37.2-12.8 28.3-17.5 36.3-23.8 41.7-5.1 4.3-3 11.7 16.5-10.5 12.2-13.9 23.3-19.9 23.3-19.9s-6.8-3.9-11.3-7.8c16 11.7 34.6 20.3 54.9 25.3.5 27.5-.6 35.7-4.8 42.1-3.4 5.1 2.8 10.4 13-13.9 6.4-15.2 15.7-23.7 15.7-23.7s-15.4-1.5-21.5-4c11.8 2.7 24.2 4.3 36.9 4.3 12.3 0 24.1-1.5 35.6-4 13.6 16.3 15.9 27.1 18.3 33.1 3.7 9.3 7.2 6.8 3.2-20.2-2-13.8-.2-18.3.4-19.3 11.7-4.4 22.6-10.2 32.6-17 24.1 5.9 32.9 20 38.8 24.9 8.8 7.4 5.8-4.3-6.6-24.3-8.4-13.6-11.4-16.4-12.1-16.9 8.8-8.5 16.5-18 22.7-28.3 25.2 6 32.8 8.8 38 13 4.4 3.6 11 .8-10.8-12.1-11.5-6.8-17.7-13.7-19.4-15.7 4.9-10.9 8.2-22.5 10-34.6 20.8-8.9 33.4-9 40.5-10 10.6-1.7 8.5-5.2-22.3-6.7zM263.6 379.9c-79.1 0-143.5-59.3-143.5-132.2s64.4-132.3 143.5-132.3 143.5 59.3 143.5 132.3c-.1 72.9-64.4 132.2-143.5 132.2z" />
    <path d="M327.8 307c-5.8-2.5-27-10.7-45.1-13.2 16.1-10 23.4-17.2 21.3-21.4-2.3-4.8-9.8-2.7-14.3-1.5-6.5 1.8-20.4 3.7-28.5 2.9-2-.2-4.6-.8-5.5-2.5-.7-1.4-1.4-6.1 7.4-18.2 14.3-19.5 18.8-53.1 16.9-76.1-1.7-20.4-21.1-48.6-32.6-63.6-1.4-1.8-4.1-2.2-6-1-1.9 1.3-2.4 3.7-1 5.5 8.8 11.6 29.5 40.5 31 59.7 1.8 21.6-2.3 53.1-15.4 71.1-8.4 11.5-11.1 20-8.1 26 1.4 2.7 4.6 6.2 12.3 7 8.8 1 21.6-.8 29.3-2.6-5.9 4.4-14.7 10.1-21.9 14.2l-.3.3c-19.1 1.8-38.2 11.1-46 16.3-1.9 1.3-4.9 4.9-3.5 6.6s4.1 2 6 .8c7.5-4.9 30.9-12.1 49.2-12.6 13.8-.4 33.8 2.2 43.6 6.1-3.4 5.2-21 14-30.1 15.8-12.7 2.6-32.5 1.1-47.6-4.6-2.2-.8-8.3-3.9-9.7-1.3-1.8 3.5 4.4 5.7 6.6 6.4 10.5 3.1 19.6 5.2 34.4 6.2-2.5 1.5-4.8 3.5-7.6 5.3-7.4 4.8-10.6 12.4-13.9 21.4-2 5.5-4.6 12.5-8.1 19.5-.9 1.9 2.6 2.7 4.8 3.5s4.7 0 5.7-2c4.2-8.5 5.8-16.7 9-22 3.8-6.2 8.2-11.7 14.6-16.7 13-10.2 19.9-11.5 20-11.6.6-.1 1.2-.4 1.6-.8 14-5.5 29.7-14.3 31.2-15.3 1.5-.9 3.4-2.2 3.9-3.8.7-1.8-3.6-3.8-3.6-3.8zM221.2 184.7c-24.2.8-39.4 9.6-55.3 20.3-.8.5-.9 1.5-.3 2.1a1.85 1.85 0 0 0 2.4.3c15.5-10.3 29.9-15.5 53.1-16.3 16.8-.5 27.2 2.9 29.7 4.2.8.4 2.9.7 4.2-2.2 1-2.3-1.3-3.3-2.2-3.8-4-2.1-15.8-5.1-31.6-4.6zm110.7-1.1c23.4 1.5 37.6 10.8 52.6 22 .7.5.8 1.5.2 2.1s-1.6.7-2.4.2c-14.5-10.8-28.3-16.5-50.6-17.9-16.2-1.1-26.4 2-28.9 3.3-.8.4-2.8.6-3.9-2.3-.9-2.3 1.4-3.3 2.2-3.7 4-2.1 15.6-4.7 30.8-3.7zM248.7 206c-3.1-2.9-12.3-7.2-25.2-7.3-19.7-.3-31.9 4.2-45.8 16.6-.7.6-6.3 6.3-2 10.1 1.7 1.5 8.1-5.2 8.8-5.7 5.3-3.7 9.3-6.5 13.3-8.5-1.2 1.7-1.9 3.5-1.9 5.6 0 6.8 7.6 12.3 17 12.3s17-5.5 17-12.3c0-4.2-2.9-7.8-7.2-10 13.7.2 21.8 4.9 23.7 6.7.6.6 2.3 1 3.6-2.5 1.1-2.9-.7-4.4-1.3-5zm-36.8 11.6c-1.8 0-3.4-1.3-3.4-3 0-1.6 1.5-3 3.4-3s3.4 1.3 3.4 3c-.1 1.7-1.6 3-3.4 3zm92-15.7c2.7-2.9 11-7.5 22.7-8 18-.8 29.3 3.4 42.5 15.3.6.6 6 6.1 2.2 10-1.5 1.6-7.6-5-8.3-5.5-4.9-3.6-8.7-6.3-12.4-8.2 1.1 1.6 1.9 3.5 2 5.5.3 6.8-6.5 12.5-15.1 12.8s-15.8-5.1-16-11.8c-.2-4.2 2.3-7.9 6.2-10.2-12.5.5-19.7 5.5-21.4 7.3-.5.6-2.1 1.1-3.4-2.4-1.2-2.7.4-4.2 1-4.8zm34.1 10.6c1.7 0 3-1.4 2.9-3s-1.5-2.9-3.2-2.9a3.01 3.01 0 0 0-3 3c.1 1.7 1.6 2.9 3.3 2.9z" />
</svg>
